/* XPM */
static char *ea2b9ce30e624101e47ad5faf9c05770[] = {
/* columns rows colors chars-per-pixel */
"16 16 201 2 ",
"   c #090A19",
".  c #0E0D1B",
"X  c #0F0D1C",
"o  c #0E0C1E",
"O  c #16151E",
"+  c #18161F",
"@  c #19191A",
"#  c #1D1E19",
"$  c #23271D",
"%  c #252A1C",
"&  c #282D1D",
"*  c #020124",
"=  c #040324",
"-  c #080625",
";  c #0B0925",
":  c #0B0926",
">  c #0F0C27",
",  c #0F0D27",
"<  c #050328",
"1  c #07052F",
"2  c #090628",
"3  c #09072B",
"4  c #0C0A2A",
"5  c #0E0C2A",
"6  c #100E23",
"7  c #110F26",
"8  c #141222",
"9  c #171522",
"0  c #121024",
"q  c #151324",
"w  c #161425",
"e  c #171527",
"r  c #181B24",
"t  c #12102A",
"y  c #13112C",
"u  c #15132E",
"i  c #16142E",
"p  c #17152F",
"a  c #18162D",
"s  c #050233",
"d  c #090732",
"f  c #0D0B33",
"g  c #131133",
"h  c #171631",
"j  c #161432",
"k  c #131036",
"l  c #191731",
"z  c #191732",
"x  c #191735",
"c  c #131239",
"v  c #19173C",
"b  c #1A183C",
"n  c #232522",
"m  c #282F22",
"M  c #292E25",
"N  c #2B2E25",
"B  c #2F3420",
"V  c #2F3622",
"C  c #293224",
"Z  c #2E3727",
"A  c #343B24",
"S  c #2F3337",
"D  c #32401D",
"F  c #3B461B",
"G  c #3B481C",
"H  c #3C491D",
"J  c #36402E",
"K  c #3F4A2A",
"L  c #3D4A2F",
"P  c #374033",
"I  c #404D1B",
"U  c #404C1C",
"Y  c #43501E",
"T  c #44521D",
"R  c #4E611F",
"E  c #4F621F",
"W  c #5A6E16",
"Q  c #51641F",
"!  c #55691F",
"~  c #5B711F",
"^  c #5A721F",
"/  c #627A15",
"(  c #435021",
")  c #4C5E24",
"_  c #4C5E27",
"`  c #475129",
"'  c #48542A",
"]  c #4B5B28",
"[  c #48533B",
"{  c #4F6129",
"}  c #5A7120",
"|  c #5A712B",
" . c #607623",
".. c #627820",
"X. c #627822",
"o. c #637C30",
"O. c #161343",
"+. c #1B1946",
"@. c #1C1B47",
"#. c #1F1D45",
"$. c #1E1D46",
"%. c #1A194A",
"&. c #1F1E49",
"*. c #1C1A4D",
"=. c #1E1C4C",
"-. c #1E1C4F",
";. c #1F1D4F",
":. c #201F4F",
">. c #201F52",
",. c #22214E",
"<. c #343A48",
"1. c #353A4F",
"2. c #212051",
"3. c #222154",
"4. c #222155",
"5. c #212056",
"6. c #26255A",
"7. c #27265B",
"8. c #2C2B5D",
"9. c #2D2C5D",
"0. c #393C5C",
"q. c #2C2B62",
"w. c #2C2B65",
"e. c #2D2B65",
"r. c #2E2D65",
"t. c #333361",
"y. c #323262",
"u. c #343362",
"i. c #343363",
"p. c #333364",
"a. c #38376A",
"s. c #383869",
"d. c #403F6C",
"f. c #42475A",
"g. c #464E5A",
"h. c #4D555B",
"j. c #4B555C",
"k. c #545F56",
"l. c #596C4B",
"z. c #5C6F4D",
"x. c #60734C",
"c. c #434364",
"v. c #424267",
"b. c #434367",
"n. c #454566",
"m. c #4E4E66",
"M. c #4E4E67",
"N. c #4F4E67",
"B. c #434268",
"V. c #44436B",
"C. c #40406D",
"Z. c #48476D",
"A. c #49486E",
"S. c #504F65",
"D. c #51506B",
"F. c #5F5F69",
"G. c #5E5E6E",
"H. c #444470",
"J. c #565575",
"K. c #5A5971",
"L. c #5D5D72",
"P. c #5B5A77",
"I. c #5C5B7A",
"U. c #5D5D78",
"Y. c #65656E",
"T. c #626170",
"R. c #636270",
"E. c #616177",
"W. c #636376",
"Q. c #6B6B77",
"!. c #65657C",
"~. c #696978",
"^. c #6D6C7C",
"/. c #6E6E7C",
"(. c #6D6D7F",
"). c #72717E",
"_. c #77777E",
"`. c #66811F",
"'. c #6E891E",
"]. c #718F1F",
"[. c #78981E",
"{. c #7C9B1C",
"}. c #688022",
"|. c #6C8523",
" X c #6A8425",
".X c #718C22",
"XX c #708A2B",
"oX c #76922B",
"OX c #706F83",
"+X c #707082",
"@X c #767682",
"#X c #848485",
"$X c #848488",
"%X c #8A8A89",
"&X c #8D8D8B",
"*X c #8D8D8D",
"=X c gray58",
"-X c #979795",
";X c #959598",
":X c #AFAFAE",
">X c None",
/* pixels */
">X>X>X>X>X~.D.n.n.m.R.>X>X>X>X>X",
">X>X>X/.B.8.3.2.,.3.8.B.Q.>X>X>X",
">X>XW.y.-.v g u f l v 2.i.G.>X>X",
">X@Xp.%.h t 0 0 : w 1 l =.t.Y.>X",
">XV.3.h e < = O o o 9 4 k 3.c.>X",
"/.g.S s m & H # = m % _ { [ i.F.",
"P.x.` 5 E H [.W   ^ T }.A  Xf.S.",
"J.l.A 3 E L ^ / I X.T .XQ oX0.m.",
"I.x.' : ! H ^ V }.'.( X.M | k.m.",
"OXh.XX) |.B X.@ D {.G .X_ o.j.R.",
";XH.<.K N - r 9 . $ n Z P 1.c.*X",
">XOXr.O.u 5 : 0 6 9 3 u +.r.+X>X",
">X>XU.q.+.x u y d a c &.e.!.>X>X",
">X>X-XE.a.6.=.#.#.-.7.a./.:X>X>X",
">X>X>X>X_.K.A.C.C.Z.L.$X>X>X>X>X",
">X>X>X>X>X&X%X#X#X%X-X>X>X>X>X>X"
};
