/* XPM */
static char *_65a4c9f7ada40b9a0f83cf369a63f56[] = {
/* columns rows colors chars-per-pixel */
"64 64 256 2 ",
"   c #030103",
".  c #03010B",
"X  c #0C0A0C",
"o  c #0A0806",
"O  c #191707",
"+  c #040213",
"@  c #0C0C14",
"#  c #03011C",
"$  c #0D0C1B",
"%  c #08051F",
"&  c #100F12",
"*  c #100F1D",
"=  c #141314",
"-  c #13131B",
";  c #1C1C1C",
":  c #1B1818",
">  c #0F1107",
",  c #1A230B",
"<  c #182317",
"1  c #272B09",
"2  c #242916",
"3  c #2C3814",
"4  c #030124",
"5  c #0B0B22",
"6  c #04012C",
"7  c #0C0B2B",
"8  c #09072C",
"9  c #110F2B",
"0  c #0C1128",
"q  c #131323",
"w  c #1C1C23",
"e  c #14132B",
"r  c #1C1B2D",
"t  c #171727",
"y  c #030134",
"u  c #0C0A34",
"i  c #03013B",
"p  c #0C0B3C",
"a  c #09073A",
"s  c #110F35",
"d  c #141333",
"f  c #1C1B34",
"g  c #15133B",
"h  c #1B1C3A",
"j  c #18163D",
"k  c #0C1139",
"l  c #211F24",
"z  c #211F34",
"x  c #1A232D",
"c  c #1C2823",
"v  c #1D2237",
"b  c #232324",
"n  c #25242C",
"m  c #2C2C2B",
"M  c #282828",
"N  c #30302E",
"B  c #24243C",
"V  c #2D2C3B",
"C  c #262635",
"Z  c #343334",
"A  c #393936",
"S  c #35353A",
"D  c #3C3C3C",
"F  c #383738",
"G  c #2B3433",
"H  c #403E3E",
"J  c #3C4C10",
"K  c #384531",
"L  c #494E0A",
"P  c #4D5911",
"I  c #5C6A1D",
"U  c #567915",
"Y  c #556B0E",
"T  c #65710E",
"R  c #6A790F",
"E  c #657A14",
"W  c #707D1A",
"Q  c #474A29",
"!  c #41413D",
"~  c #505736",
"^  c #4A5429",
"/  c #55712F",
"(  c #667629",
")  c #687A38",
"_  c #696E36",
"`  c #030143",
"'  c #03014B",
"]  c #0B0946",
"[  c #110F44",
"{  c #151443",
"}  c #191742",
"|  c #1C1C44",
" . c #1D1C4B",
".. c #16154B",
"X. c #030153",
"o. c #03015C",
"O. c #0B0A5A",
"+. c #1D1C52",
"@. c #17165A",
"#. c #100F58",
"$. c #201F46",
"%. c #232243",
"&. c #2C2B43",
"*. c #23224C",
"=. c #2B2A4C",
"-. c #28274A",
";. c #312F48",
":. c #343443",
">. c #3C3B43",
",. c #33334B",
"<. c #3A3A4D",
"1. c #39374E",
"2. c #242453",
"3. c #2C2B53",
"4. c #25255A",
"5. c #2C2B5C",
"6. c #28275D",
"7. c #312F59",
"8. c #343454",
"9. c #3B3B56",
"0. c #353559",
"q. c #3B3B5B",
"w. c #383755",
"e. c #293251",
"r. c #030164",
"t. c #03016A",
"y. c #0B0B62",
"u. c #1B1A65",
"i. c #030175",
"p. c #01007B",
"a. c #0C0C7B",
"s. c #15147A",
"d. c #0F106C",
"f. c #2D2D63",
"g. c #292869",
"h. c #302F69",
"j. c #333263",
"k. c #3B3B63",
"l. c #33336B",
"z. c #3A3A6A",
"x. c #2A2978",
"c. c #343374",
"v. c #3C3B74",
"b. c #38377B",
"n. c #2F306A",
"m. c #403F47",
"M. c #403E58",
"N. c #413F6F",
"B. c #3C4343",
"V. c #444443",
"C. c #42434D",
"Z. c #4C4C4B",
"A. c #494948",
"S. c #50524F",
"D. c #424353",
"F. c #484757",
"G. c #5C5C5B",
"H. c #545453",
"J. c #465247",
"K. c #527246",
"L. c #6D7C47",
"P. c #484767",
"I. c #444374",
"U. c #484777",
"Y. c #405B67",
"T. c #686867",
"R. c #747473",
"E. c #7C7C7C",
"W. c #787877",
"Q. c #70706E",
"!. c #698817",
"~. c #789717",
"^. c #728A1F",
"/. c #7CA81A",
"(. c #698824",
"). c #779425",
"_. c #6C8535",
"`. c #789838",
"'. c #748933",
"]. c #7DA52E",
"[. c #5E8221",
"{. c #6E8848",
"}. c #7A8B45",
"|. c #7B9A44",
" X c #87A918",
".X c #8CBB18",
"XX c #99BB18",
"oX c #819A2A",
"OX c #85A928",
"+X c #98BC26",
"@X c #8CB431",
"#X c #809716",
"$X c #9FC116",
"%X c #9DCF1B",
"&X c #9AC41C",
"*X c #9FD11B",
"=X c #A1C519",
"-X c #A3C81A",
";X c #A4D31C",
":X c #ABD91D",
">X c #A9D61B",
",X c #B1DD1D",
"<X c #B5E41D",
"1X c #B7E91C",
"2X c #B9EB1D",
"3X c #AEE01C",
"4X c #9BCC20",
"5X c #A5CC22",
"6X c #A2C625",
"7X c #A9D622",
"8X c #B1DC21",
"9X c #B4E221",
"0X c #8E9E40",
"qX c #010084",
"wX c #03018A",
"eX c #0C0A80",
"rX c #1C1B8B",
"tX c #1E1D95",
"yX c #2B2A8B",
"uX c #262584",
"iX c #383888",
"pX c #252497",
"aX c #3C3C93",
"sX c #3C3C9C",
"dX c #353594",
"fX c #302F9C",
"gX c #302FA2",
"hX c #403F95",
"jX c #403E82",
"kX c #444484",
"lX c #4B4A85",
"zX c #43428A",
"xX c #4B4B8B",
"cX c #48478A",
"vX c #444393",
"bX c #4B4B94",
"nX c #44449C",
"mX c #4C4B9B",
"MX c #525196",
"NX c #4040A0",
"BX c #848484",
"VX c #8B8B8B",
"CX c #888887",
"ZX c #949493",
"AX c #9B9B9B",
"SX c #A09FA0",
"DX c #A4A4A4",
"FX c #ACACAC",
"GX c #B3B3B3",
"HX c #BBBBBB",
"JX c #A09F9F",
"KX c #C4C4C4",
"LX c #CCCCCC",
"PX c #D1D1D1",
"IX c #DBDBDB",
"UX c None",
/* pixels */
"UXUXUXUXUXUXUXUXUXUXUXUXUXUXUXUXUXUXUXUXUXUXUXUXUXUXPXLXHXFXHXHXGXGXGXHXLXUXUXUXUXUXUXUXUXUXUXUXUXUXUXUXUXUXUXUXUXUXUXUXUXUXUXUX",
"UXUXUXUXUXUXUXUXUXUXUXUXUXUXUXUXUXUXUXUXUXUXPXKXGXAXW.T.H.V.D D D B.A.G.Q.E.ZXFXHXUXUXUXUXUXUXUXUXUXUXUXUXUXUXUXUXUXUXUXUXUXUXUX",
"UXUXUXUXUXUXUXUXUXUXUXUXUXUXUXUXUXUXUXPXKXFXW.Z.m * * e s $...3.-. .j k * - ; A G.CXFXKXUXUXUXUXUXUXUXUXUXUXUXUXUXUXUXUXUXUXUXUX",
"UXUXUXUXUXUXUXUXUXUXUXUXUXUXUXUXUXPXHXVXZ.; $ z 3.c.kXlXyXlXiXb.rXlXcXiXkXiXz. .e : Z T.DXKXUXUXUXUXUXUXUXUXUXUXUXUXUXUXUXUXUXUX",
"UXUXUXUXUXUXUXUXUXUXUXUXUXUXUXPXHXCXA @ d 7.iXiXuXU.a.d.P.7.6.k.q.7.u.k.n.s.I.rXzXc.=.% M G.AXKXUXUXUXUXUXUXUXUXUXUXUXUXUXUXUXUX",
"UXUXUXUXUXUXUXUXUXUXUXUXUXUXPXAXB.@ B v.kXyXz.g.@.F.+.3.=.r.p.g D.' qX] F.9.w.P.n.s.lXiXu.q b Q.FXPXUXUXUXUXUXUXUXUXUXUXUXUXUXUX",
"UXUXUXUXUXUXUXUXUXUXUXUXIXHXT.: r N.dXuXk.p.O.Z.0.B -.V.z ' ' 0 <.6 i s q.u X.] 0.D.6.n.lXyX2.$ A ZXHXUXUXUXUXUXUXUXUXUXUXUXUXUX",
"UXUXUXUXUXUXUXUXUXUXUXPXDX! + 4.dXuXP.0.D...%.7.y ' y u k.* s &.A.,.%.m.r i qXX.B -.r.i.0.v.cXiXs ; R.GXUXUXUXUXUXUXUXUXUXUXUXUX",
"UXUXUXUXUXUXUXUXUXUXLXZXb 0 v.lXv.f.9.} { ,.Z.$ ` wXX.# ; A.S  .o s r A r i y 6 n V i a 9.3.u.I.aX3.- G.DXUXUXUXUXUXUXUXUXUXUXUX",
"UXUXUXUXUXUXUXUXUXKXCX: h iXjXeX2.C.a t.' 4 w.p y ' i 6 r Z   y # i . 7 k.q + *.>.D 7.>.:.' qX4.v.pXz.- H.DXUXUXUXUXUXUXUXUXUXUX",
"UXUXUXUXUXUXUXUXKXCX- $.hXb.j.o.} =.y i.' 4 &.w   y . # q.{ # 4 ' ' i 6 & V.! =.7 + p w <.p a ,.0.n.iXx.* V.SXUXUXUXUXUXUXUXUXUX",
"UXUXUXUXUXUXUXLXZX; } xXx.y.F.0.C.D 6 6 i + m A.w [ X ; F + 4 y i.i.6 .   F : . y 4 6 6 } B.<.-.j 7.c.zXv.@ Z.SXUXUXUXUXUXUXUXUX",
"UXUXUXUXUXUXIXGXm g bXc.q.9.$.k $ -.8.o q 7.N ; V 3.Z Z.l     y ` i 6 i u 1.5 + 4 r.r.6 . F w y t.o.9.g.tXz.* G.DXUXUXUXUXUXUXUX",
"UXUXUXUXUXIXKXV.q kXyXt.3.&.i o.i 6 M A.F  .%   4 6   : A + i 4 + y     $ 1.8 6 6 r.r.y y 3.} y t.' B 0.z.aX4.= R.FXUXUXUXUXUXUX",
"UXUXUXUXUXPXQ.@ jXyXP.3.D.9 ' wX` + = A o + i . y +     ;.3.+     i +   = Z     % y y +   M b . y 8 q.%.2.z.aX} M CXUXUXUXUXUXUX",
"UXUXUXUXPXSX= 2.dXP.+.} >.} y i 4 y *.%..   6 6 y + 4 i 8 D =     6 $ : m.D     i + + y . D V.;.%.A V i qX@.U.xXq V.DXUXUXUXUXUX",
"UXUXUXUXKXV.e vXU.2.qX' } ;.  y .   >.d y y y r.X.a 6 +   = A l M ,.,.N ; M A g 6     s w.M o g z Z V i ' | h.tXk.& R.GXUXUXUXUX",
"UXUXUXKXZXX I.rXf.$.X.i @ A.F 3.n S Z     . y i.r.6         m.F ; * a       - j.Z = = D | 6   6 + + 7.V &.M.9.U.sXd Z AXUXUXUXUX",
"UXUXUXHX! d sXP.M.M.h f q.; - ..l Z F   . 6 y 6 6 6 a +   = A       i +     y % : D Z.&   y 6 6 6 i + ! S a ] 7.kXv.@ Q.FXUXUXUX",
"UXUXHXZX& c.xX6.o.p V.H s 4 + y     F e i 8   4 4   + y y S ;       4 4   # i     X F       y t.r.6 4 &.{ ' wX@.I.fXf A ZXUXUXUX",
"UXUXHXG.5 aXI.#.p.i ,.t + y 6 4 . 4 ..0..     4 6       9 k.u #     + y . i +       S * 4 y y o.o.6 4 B n 4 i *.P.cXg.= E.FXUXUX",
"UXUXGXc 3.dXn.-.u q 1.a y X.i.i i 6 @ A :     4 4 o o   Z l + y i 4 + a y 8 > . # 6 5.| 4 X X u % u   b A.=.;.C.o.rXcX$ H.ZXUXUX",
"UXGXVX@ kXyXK.+XoXZ.A   4 X.i.i     P .X#X; & 7 x ~. X^.H       . 4 y o.a.!. X^ 6 # w _. X X XOX XOX X+X).~ N w.+.n.bX} N CXUXUX",
"UXHXT.* sXc.0X1X$X: 1.p y # 6 6 y . U 2X5XQ F 1.J.:X2X9XP           6 o.d.+X2XT       ).2X1X1X1X1X1X1X1X2X1X XS C.f.dXl.= W.UXUX",
"UXHXD | nXz.`.1X&Xk *.n   # 6   4 y U 2X-XO   6 c %X<X1X$X1     % i 6 4 0 .X2XE       [.1X7X}.{._.}.I Y ~.:X1XOXM.@.uXcX@ T.AXUX",
"GXGXM j.dXl.`.1X&X$ ; V.= 6 #     f |.2X-XO   y < %X1X<X1X~.X y y +   4 9 .X1X( +   ; ].1X=XC d ; G m . y / 3X,XL.9.U.hX9 Z.ZXUX",
"FXFX; b.yXj.].2X+X8.D m Z k.m = b S [.1X=XO   i < *X<XXX3X<X~ 4       4 0 .X2X( i 7 D (.2X$Xt 4     &.*.# , &X2X) o.s.MXd H VXUX",
"FXAX- iXU.6.[.2X5X>.8   4 u b V.V.. U 2X=XO . i , %X1X^ /.1X-X1       4 0 .X1XT . 8.| U 2X$X; 4   # p D ; c 4X2X( ] u.mX .Z CXUX",
"GXVX$ vXN.p.K.2XXXO y + i +   : N   U 1X6Xf + y , %X<XQ 3 *X1X~.o     6 * .X2XT w Z + / 2X$X- 6 # i . X A./ 3X8XS.D.k.vX4.m E.UX",
"GXCX* mXU.#.) 2X+Xd a ' 6 o . - N . U 1X=Xr ' i x %X<XL   U 1X3XP o o 8 t .X2XW D X   U 2X5XG v v , , 1 ) &X9X) ] =.u.gXk.M BXUX",
"HXCXq sXx.F.`.2X$Xt t.qXi y y { 7.y / 1X&Xf qXi.x %X1XL   > /.2X5X~ F w.B.&X1X0XS     U 1X3X7X5X;X;X;X>X<X<X'.eXr.| P.bXf.b BXUX",
"HXVX* vXU.#./ 2X+Xe a ' 6 o . - G . U 1X=Xf ' ` x 4X<XL     J 7X2X#X> 6 e .X2XW D >   U 2X<X:X:X>X:X>X:X<X1X5X) s ,.u.fXj.b BXUX",
"HXZX* vXjXp.K.2XXXO i . i .   ; Z   U 1X6Xf + y , %X1XQ + X H U 1X,XP 4 * .X2XT ; Z # / 2X*X3 m 2 V 2 3 }.+X<X<X}.B.N.bX5.M E.UX",
"FXDX- iXU.e.[.2X5XB.u   # g M A.V.o U 2X&XO . y , *X1XQ y 3.C > /.2X-Xm 5 .X2XT . 8. .U 2X$Xq 6   # p >.- < `.1X7X5.s.MX2.N BXUX",
"DXGXb jXyXf.`.1X5X1.D N S k.n X ; A ).1XXX>   i , %X<XL @ 9.p 6 3 %X1X).t .X2X( i 7 D !.2X$Xt #     S +.# # K 3X<XS.s.MXj D BXUX",
"FXHXG l.dXk.K.1X8X3 - V.= 6 #     z +X2X Xo   y < %X1XL F ; . y y / 3X<XI .X1X( +   ; `.2X=XZ h c D m . 6 ' e.7X1XL.P.nXe Z.CXUX",
"UXHXZ.*.nXz.B.;X2X( =.z   # 6   4 G 7X2XT     u c %X3X( Z       # k ].1X>X>X1XT       !.2X5XD -.b D m . 6 r.Y.9X,XB.rXbX@ T.ZXUX",
"UXFXW.t sXv.D.].1X8X}.h 6 4 y 8 G OX1X3X_ Z D 8.J.7X9X}.l           2 %X1X1X1XT       ).2X$X- 6     :.} % M &X2X6XP.aXv.= W.AXUX",
"UXDXJX- cXyXu.L.*X1X,XXX(.) _.OX;X1X3X).D = X 8 n *X9XI Z       + 6 i / <X1X1X( y 4 r ].1X>X^.[.E !._.`.~.*X1X3X~ x.mX2.m BXDXUX",
"UXFXGXZ h.dXz.%.K +X<X1X2X2X2X2X2X5X( ! =     4 r -X<XL N b 4 y y % + k /.2X2XT # 6 4.`.2X1X2X2X2X2X2X2X2X1X&X) #.rXbX5 S.CXKXUX",
"UXKXGXQ.d nXI.#.p.d / ). XOX X).Y 2 | 0.+     4 e E !.1 e k.y +     + i 1 (.^.J     A J !.!.^.{.{._._.`.( Q } *.P.lXc.@ Q.ZXUXUX",
"UXUXSXFXw iXlX6.o.g m.A f $ @ 6     D e y 6 . 4 6   # a 6 G b       6 %   # i .   X S o     6 t.r.6 4 &.g ' wX#.I.gXB N BXGXUXUX",
"UXUXGXFXH.$.NXU.M.M.d e 0.l - *.b S F     4 a 6 6 y a +   = F       i +     y % l B.Z.- . y 6 6 8 i @ B.S [ O.q.zXzX@ T.AXPXUXUX",
"UXUXPXFXSX; U.tXh.| o.` @ Z.Z =.n N Z   . + y i.r.4         H F c t p       w z.Z & = ! %.4   6 + + j.V v M.M.U.nX$.m ZXGXUXUXUX",
"UXUXUXFXGXG.h mXU.2.qX' } ,.  y . . <.s y y 6 r.X.y y +   : D : b ;.9.Z ; N A d 6     8 w.m & h B ! G i X...k.tXkX@ T.DXPXUXUXUX",
"UXUXUXPXSXFXn n.dXP.+.%.B.} y ` 6 y *.V .   6 8 i . # y 8 >.=     6 % = A D     i . # i . A V.&.%.Z &.` qX@.U.mXe S ZXHXUXUXUXUX",
"UXUXUXUXGXDXBXq bXyXP.2.M.9 ' wX` . & A o + i   y +     ;.3.#     i .   - Z     # y y + . n l + y 6 0.;.3.U.mX6.: E.GXIXUXUXUXUX",
"UXUXUXUXUXAXGXS.h mXc.i.3.&.i X.i 6 m V.S *.%   4 8 o : A + y 6 + y   . 0 1.y 6 6 t.t.a y =.} y t.' -.q.h.aXiX& G.FXKXUXUXUXUXUX",
"UXUXUXUXUXHXZXFXN +.mXc.k.0.-.d * ,.3.. 7 3.F b V 8.F Z.;     y ` ` y y 8 ,.$ + 4 r.r.y   F b y t.X.M.g.pXzX$ V.DXLXPXUXUXUXUXUX",
"UXUXUXUXUXUXFXAXAXb 4.mXx.r.F.0.C.! 8 4 y + m ! ; [ o ; F # 6 y p.i.6     F ; . i 4 6 4  .B.<.3.$.9.c.zXbXe Z DXKXPXUXUXUXUXUXUX",
"UXUXUXUXUXUXUXAXDXZXw 5.nXI.7.o.{ 3.i i.' 4 ;.r . y + # q.g # # ' ` y y - ! D ;.e + { b 1.p i ,.k.g.hXnXe m ZXKXLXUXUXUXUXUXUXUX",
"UXUXUXUXUXUXUXHXAXDXAXb 4.nXkXeX2.C.] r.' % w.k y ' ` 6 r F   y # a . 7 k.q + ..D V.0.S :.X.qX4.b.gXcX* Z AXKXLXLXUXUXUXUXUXUXUX",
"UXUXUXUXUXUXUXUXGXZXJXJXN | bXlXv.g.9.%.| <.A.$ ` wXX.# l Z.:.*.X j z ! n i i 6 z &.y ` q.3.g.U.nXI.$ D AXKXKXKXUXUXUXUXUXUXUXUX",
"UXUXUXUXUXUXUXUXUXGXVXZXDXA.e c.hXuXI.f.F...| 7.6 ' y d k.* p V Z.,.%.A f i qXX.%.,.r.p.0.c.bXNX2.@ G.FXKXHXHXUXUXUXUXUXUXUXUXUX",
"UXUXUXUXUXUXUXUXUXUXFXZXVXFXQ.t *.xXgXx.k.p.O.A.8.&.8.Z.z ' X.7 <.8 ` [ M.k o.] 9.P.5.z.lXsXv.e b W.HXHXGXGXUXUXUXUXUXUXUXUXUXUX",
"UXUXUXUXUXUXUXUXUXUXUXFXVXBXZXAXA.q 5.vXbXiXz.g.y.F...2.3.r.p.j F.' wX] F.0.M.P.l.s.cXnXiXh = H.AXGXGXFXGXUXUXUXUXUXUXUXUXUXUXUX",
"UXUXUXUXUXUXUXUXUXUXUXUXFXZXE.CXDXCXD q 2.iXvXaXyXP.a.u.P.5.7.k.0.0.u.k.n.s.U.pXMXvXc.d - V.CXFXGXFXDXFXUXUXUXUXUXUXUXUXUXUXUXUX",
"UXUXUXUXUXUXUXUXUXUXUXUXUXUXVXBXBXVXDXVXZ.w e 3.v.aXbXMXdXcXiXkXtXxXcXsXbXnXzXc.| q ; S.VXDXJXJXDXDXGXUXUXUXUXUXUXUXUXUXUXUXUXUX",
"UXUXUXUXUXUXUXUXUXUXUXUXUXUXUXAXVXBXE.CXJXAXW.A.n t d $.4.j.x.v.v.c.f.2.h e * b A.W.ZXAXAXAXZXAXDXUXUXUXUXUXUXUXUXUXUXUXUXUXUXUX",
"UXUXUXUXUXUXUXUXUXUXUXUXUXUXUXUXUXZXBXE.R.E.VXZXAXZXE.T.H.V.F S S A ! Z.T.W.VXZXZXZXVXVXAXZXAXFXUXUXUXUXUXUXUXUXUXUXUXUXUXUXUXUX",
"UXUXUXUXUXUXUXUXUXUXUXUXUXUXUXUXUXUXUXVXE.W.BXBXCXCXVXZXAXDXAXDXAXAXAXAXAXZXBXCXCXVXZXZXAXFXUXUXUXUXUXUXUXUXUXUXUXUXUXUXUXUXUXUX",
"UXUXUXUXUXUXUXUXUXUXUXUXUXUXUXUXUXUXUXUXUXAXVXCXCXBXBXCXCXCXBXE.BXBXBXCXBXCXCXCXCXZXDXUXUXUXUXUXUXUXUXUXUXUXUXUXUXUXUXUXUXUXUXUX",
"UXUXUXUXUXUXUXUXUXUXUXUXUXUXUXUXUXUXUXUXUXUXUXUXFXZXVXVXCXCXBXCXCXBXVXVXCXVXZXFXUXUXUXUXUXUXUXUXUXUXUXUXUXUXUXUXUXUXUXUXUXUXUXUX",
"UXUXUXUXUXUXUXUXUXUXUXUXUXUXUXUXUXUXUXUXUXUXUXUXUXUXUXUXUXUXUXUXUXUXUXUXUXUXUXUXUXUXUXUXUXUXUXUXUXUXUXUXUXUXUXUXUXUXUXUXUXUXUXUX"
};
