/* XPM */
static char *da17dc4168c741e3d6c3045a6fdd68f7[] = {
/* columns rows colors chars-per-pixel */
"32 32 252 2 ",
"   c #030106",
".  c #0E0F06",
"X  c #04020B",
"o  c #0E0C0F",
"O  c #10100A",
"+  c #030115",
"@  c #0B0A13",
"#  c #03021C",
"$  c #09061C",
"%  c #0C0B1D",
"&  c #110E11",
"*  c #100F1C",
"=  c #141314",
"-  c #13111A",
";  c #1C1A1D",
":  c #211F1E",
">  c #1D231A",
",  c #272B0B",
"<  c #262B15",
"1  c #222A1D",
"2  c #2E3315",
"3  c #2C3519",
"4  c #303816",
"5  c #313A1E",
"6  c #030124",
"7  c #090623",
"8  c #0C0A23",
"9  c #04012A",
"0  c #0B0A2B",
"q  c #100F22",
"w  c #110F29",
"e  c #141323",
"r  c #181724",
"t  c #161820",
"y  c #1B1B23",
"u  c #15142C",
"i  c #18172C",
"p  c #1C1B2B",
"a  c #030134",
"s  c #090633",
"d  c #03013B",
"f  c #0C0B3E",
"g  c #110F37",
"h  c #0F1136",
"j  c #131233",
"k  c #191636",
"l  c #1D1B33",
"z  c #15133A",
"x  c #1C1A38",
"c  c #211E25",
"v  c #201E2C",
"b  c #201F35",
"n  c #201E3D",
"m  c #192036",
"M  c #232323",
"N  c #232C24",
"B  c #282A25",
"V  c #24232B",
"C  c #29272E",
"Z  c #2B2B2B",
"A  c #2E3424",
"S  c #2F3629",
"D  c #333A2D",
"F  c #232233",
"G  c #282737",
"H  c #292833",
"J  c #24233B",
"K  c #29283C",
"L  c #34460C",
"P  c #3C4C0E",
"I  c #384B18",
"U  c #3A4625",
"Y  c #3F4B22",
"T  c #3A443A",
"R  c #474E1E",
"E  c #425314",
"W  c #4A561D",
"Q  c #475819",
"!  c #4C5C1C",
"~  c #54620B",
"^  c #4F6713",
"/  c #5F6F1E",
"(  c #5D7B1B",
")  c #627511",
"_  c #60721D",
"`  c #424F21",
"'  c #425727",
"]  c #41552B",
"[  c #515C2C",
"{  c #404735",
"}  c #4D5D32",
"|  c #41513C",
" . c #4D6224",
".. c #566727",
"X. c #526C23",
"o. c #5E6D23",
"O. c #576F28",
"+. c #567123",
"@. c #5E7D21",
"#. c #5E7A29",
"$. c #4E6033",
"%. c #566332",
"&. c #616F2B",
"*. c #607023",
"=. c #607E26",
"-. c #687A27",
";. c #61742B",
":. c #6C7E2F",
">. c #030143",
",. c #090642",
"<. c #05034B",
"1. c #09074D",
"2. c #100D43",
"3. c #151545",
"4. c #191742",
"5. c #1D1C42",
"6. c #13114C",
"7. c #1C1B4A",
"8. c #040252",
"9. c #0B0952",
"0. c #110F51",
"q. c #151355",
"w. c #1A1953",
"e. c #18155D",
"r. c #1D1C5B",
"t. c #201F4D",
"y. c #232244",
"u. c #282644",
"i. c #2A2844",
"p. c #25244A",
"a. c #2A294F",
"s. c #302F4C",
"d. c #34344C",
"f. c #3D3C4B",
"g. c #232253",
"h. c #2C2C53",
"j. c #25245F",
"k. c #28275A",
"l. c #2D2C5C",
"z. c #343451",
"x. c #3B3B53",
"c. c #36365E",
"v. c #3E3D5F",
"b. c #1C1A64",
"n. c #211F63",
"m. c #272661",
"M. c #2D2C63",
"N. c #24226D",
"B. c #2E2D6B",
"V. c #2F3164",
"C. c #2E306F",
"Z. c #343363",
"A. c #3E3E61",
"S. c #32326B",
"D. c #282771",
"F. c #2E2D75",
"G. c #2E2C79",
"H. c #302F74",
"J. c #2F3171",
"K. c #343474",
"L. c #383777",
"P. c #3A3B77",
"I. c #35337A",
"U. c #3A397C",
"Y. c #3C425A",
"T. c #3D4066",
"R. c #415140",
"E. c #485144",
"W. c #435842",
"Q. c #474750",
"!. c #454852",
"~. c #4A4A55",
"^. c #42425D",
"/. c #4C4C5D",
"(. c #515155",
"). c #525259",
"_. c #58585F",
"`. c #637341",
"'. c #424262",
"]. c #4E4E61",
"[. c #555564",
"{. c #5B5B64",
"}. c #616164",
"|. c #65656A",
" X c #6B6B6D",
".X c #6D6D70",
"XX c #727273",
"oX c #777778",
"OX c #7D7D7B",
"+X c #6E8717",
"@X c #6C8C16",
"#X c #63811F",
"$X c #779112",
"%X c #7B9513",
"&X c #7F9917",
"*X c #73941D",
"=X c #7B951C",
"-X c #6A842A",
";X c #6C8F2D",
":X c #73872A",
">X c #748A28",
",X c #779C22",
"<X c #6B843B",
"1X c #7D9D38",
"2X c #778D40",
"3X c #849E1B",
"4X c #80A717",
"5X c #88A616",
"6X c #82AA16",
"7X c #85A31C",
"8X c #83AA1C",
"9X c #8AAB1C",
"0X c #8EB11B",
"qX c #91B71F",
"wX c #93BA1B",
"eX c #8BAD25",
"rX c #80A529",
"tX c #85AC2E",
"yX c #8CAD2B",
"uX c #8DB424",
"iX c #8BB32D",
"pX c #95B524",
"aX c #96BD22",
"sX c #98BF23",
"dX c #95BD2E",
"fX c #87A335",
"gX c #99C217",
"hX c #9CC41D",
"jX c #9EC91E",
"kX c #A0C81E",
"lX c #ADDB1E",
"zX c #B2E21C",
"xX c #BAED1C",
"cX c #96C023",
"vX c #9CC421",
"bX c #9ECC20",
"nX c #A7D221",
"mX c #81817F",
"MX c #868685",
"NX c #8C8C8C",
"BX c #91918F",
"VX c #939392",
"CX c #9C9C9C",
"ZX c #A0A09E",
"AX c #A6A6A4",
"SX c #ADADAD",
"DX c #B2B2B1",
"FX c #B8B8B7",
"GX c #B9B9B9",
"HX c #C4C4C4",
"JX c #D0D0D0",
"KX c None",
/* pixels */
"KXKXKXKXKXKXKXKXKXKXKXKXCXmX|.|. X.XOXBXKXKXKXKXKXKXKXKXKXKXKXKX",
"KXKXKXKXKXKXKXKXKXCX.X~.z.l.M.V.M.l.h.z.~..XKXKXKXKXKXKXKXKXKXKX",
"KXKXKXKXKXKXKXSX|.d.k.F.S.m.m.n.k.n.Z.S.B.l.x..XKXKXKXKXKXKXKXKX",
"KXKXKXKXKXKXNXf.M.K.m.p.7.x 5.4.i.5.5.9.a.n.K.l.~.BXKXKXKXKXKXKX",
"KXKXKXKXKXoXs.F.M.w.4.J <.a H i 0 i x g K 5.g.N.B.x.mXKXKXKXKXKX",
"KXKXKXKXoXh.F.k.i.,.s H w e l 6 8.9 c v 0 j n y.l.H.d.OXKXKXKXKX",
"KXKXKXVXz.F.h.6.z C b t u M t 6 a # l 7 >.>.i k 8.l.H.d.MXKXKXKX",
"KXKXDXx.H.k.y.>.9 b % 9 6 # J @ $ * Z @ 6 6 p F x y.n.S.Q.KXKXKX",
"KXKX XM.V.8.G l p p + <.>.+ o Z p p = m e r l * i n t.S.h..XKXKX",
"KXCXz.K.g.K i w ; p # 6 6 # e ;   6 X 7 ; M + d d l 4.b.L.f.KXKX",
"KXXXM.V.3.l a >.6 H = + @ O l 7 + 6 0 o $ F q h h M J t.F.h..XKX",
"DX/.K.1X&.l a d + @X_ i O.0X2   + >.| +X+ Y wXpXuXwXeX} M.S.(.KX",
"AXx.P.cX*.F q + e uX) # @.xX$X@ # 6 X.9XX ! nX%.[ R =.vXQ.I.f.KX",
"VXc.K.iX:.p l V B 8X) # ( wXhX!   + X.7Xu } gXt + k B hXE.G.d.MX",
"BXc.C.tXo.a 6 - c 4X#.d @.=X^ gX, $ +.9XM I hXS y < -XyXd.I.d.OX",
"BXZ.S.iXo.8.9 8 p 8X;.8.#.%X. 8X7Xv #.pX> L lXaXwXwXlX<Xt.U.z.OX",
"VXc.J.tX-.7 8 M M 6X_ # ( =Xw U gXW X.5Xv ] hX5 > D ..vX`.I.z.OX",
"ZXA.L.iX>XZ p q M aX~ # ( &XF 7  .cX*X7Xq  .hXV ; p a ;XfXU.d.MX",
"SX].U.<XvXT 8 7 ' nXR i -XeX;   % ,XzX7X  E kXZ M V x iX2XH.!.CX",
"FX XH.Y.rXkXeXuXbX>X: $ =.3Xc + # N jX7X7 $.lX9X4XyXwXeXT.V.}.KX",
"KXBXZ.H.7.%...! 4 H # # 1 3 x *   # 3 4 & A P | R.} T g.U.s.MXKX",
"KXSX[.U.l.2.F l V y # d d + o M - 7 X j M V 0 6 9 x y.B.K.).DXKX",
"KXKXBXZ.L.q.J s 0 l # d a # r ; e p B e $ 7 V V G 5.e.U.s.BXKXKX",
"KXKXSX|.K.B.u.8.a Z p $ 7 - F # 6 + V $ d d u j ,.h.K.l. XHXKXKX",
"KXKXKXCX].H.B.u.K j j C l V y 9 8.9 p e a d b y.w.L.B.).GXKXKXKX",
"KXKXKXSXCX/.L.D.a.1.f F a s F 7 d 7 F b F J t.r.L.C./.DXJXKXKXKX",
"KXKXKXKXAXVX].S.L.V.p.y.1.f G J F G z <.u.q.V.I.Z._.SXHXKXKXKXKX",
"KXKXKXKXKXZXBX.Xc.L.G.M.h.a.w.6.p.0.h.j.S.I.J.x.oXSXGXKXKXKXKXKX",
"KXKXKXKXKXKXCXBXMX{.'.B.H.H.K.I.K.K.I.H.V.x.}.VXSXSXKXKXKXKXKXKX",
"KXKXKXKXKXKXKXKXBXMXMX.X{.].'.'.'.^./._..XNXCXZXKXKXKXKXKXKXKXKX",
"KXKXKXKXKXKXKXKXKXKXMXNXBXNXNXMXMXNXNXNXBXCXKXKXKXKXKXKXKXKXKXKX",
"KXKXKXKXKXKXKXKXKXKXKXKXKXVXBXNXBXVXVXKXKXKXKXKXKXKXKXKXKXKXKXKX"
};
